<svg width="50" height="50" viewBox="0 0 50 50" fill="none" xmlns="http://www.w3.org/2000/svg">
<path d="M18.75 35.4167H31.25M18.75 29.1667H31.25M27.0841 6.25182C26.885 6.25 26.6612 6.25 26.4056 6.25H17.0837C14.7501 6.25 13.5825 6.25 12.6912 6.70414C11.9072 7.10361 11.2702 7.74057 10.8708 8.52458C10.4166 9.41588 10.4166 10.5835 10.4166 12.9171V37.0837C10.4166 39.4173 10.4166 40.5835 10.8708 41.4748C11.2702 42.2588 11.9072 42.8968 12.6912 43.2963C13.5816 43.75 14.7479 43.75 17.0769 43.75L32.9231 43.75C35.2521 43.75 36.4166 43.75 37.307 43.2963C38.091 42.8968 38.7301 42.2588 39.1296 41.4748C39.5833 40.5843 39.5833 39.4198 39.5833 37.0908V19.4285C39.5833 19.173 39.5831 18.949 39.5813 18.75M27.0841 6.25182C27.6788 6.25724 28.0535 6.2793 28.4128 6.36556C28.838 6.46763 29.2455 6.63597 29.6183 6.86442C30.0386 7.12201 30.3996 7.48294 31.1198 8.20312L37.6312 14.7145C38.3518 15.4352 38.7101 15.7945 38.9678 16.215C39.1962 16.5878 39.3653 16.9943 39.4673 17.4194C39.5536 17.7787 39.5758 18.1553 39.5813 18.75M27.0841 6.25182L27.0833 12.0838C27.0833 14.4173 27.0833 15.5836 27.5374 16.4749C27.9369 17.259 28.5739 17.8968 29.3579 18.2963C30.2483 18.75 31.4146 18.75 33.7435 18.75H39.5813" stroke="#2C3E50" stroke-width="2" stroke-linecap="round" stroke-linejoin="round"/>
</svg>
