<svg width="50" height="50" viewBox="0 0 50 50" fill="none" xmlns="http://www.w3.org/2000/svg">
<path d="M21.4745 28.5257L31.5706 18.4295M41.8985 12.268L33.3763 39.9651C32.6126 42.4472 32.2304 43.6889 31.5717 44.1005C31.0004 44.4575 30.2929 44.5172 29.6707 44.259C28.9531 43.9612 28.3708 42.7985 27.209 40.475L21.8112 29.6793C21.6268 29.3106 21.5345 29.127 21.4114 28.9673C21.3021 28.8255 21.176 28.6978 21.0342 28.5885C20.8781 28.4681 20.6976 28.3779 20.3453 28.2018L9.5248 22.7915C7.20125 21.6297 6.03937 21.0483 5.74164 20.3308C5.48343 19.7085 5.54232 19.0004 5.89931 18.4291C6.31095 17.7702 7.55253 17.3875 10.0355 16.6235L37.7325 8.10136C39.6845 7.50075 40.6609 7.20068 41.3202 7.44273C41.8945 7.65357 42.3473 8.10588 42.5581 8.68018C42.8 9.33919 42.4998 10.3151 41.8998 12.2651L41.8985 12.268Z" stroke="#2C3E50" stroke-width="2" stroke-linecap="round" stroke-linejoin="round"/>
</svg>
