<svg width="42" height="42" viewBox="0 0 42 42" fill="none" xmlns="http://www.w3.org/2000/svg">
<path d="M39.2075 16.9998C39.6774 15.5967 39.8407 14.1128 39.6867 12.6441C39.5328 11.1754 39.065 9.75473 38.3138 8.47392C36.0009 4.51984 31.326 2.5168 26.7554 3.44032C24.7573 1.23344 21.8167 0 18.7674 0C16.4979 0.000244635 14.2863 0.700124 12.4472 2.00006C10.6081 3.3 9.23529 5.13377 8.52399 7.24048C7.04357 7.53873 5.64514 8.14192 4.42188 9.00987C3.19862 9.87782 2.17859 10.9906 1.42975 12.2741C0.302357 14.1957 -0.177351 16.4156 0.0586907 18.6188C0.294732 20.822 1.23454 22.8965 2.74476 24.5482C2.28087 25.9548 2.12525 27.4412 2.28803 28.9105C2.45081 30.3798 2.92834 31.7992 3.68953 33.0762C4.81767 35.008 6.5469 36.5376 8.62569 37.4425C10.7045 38.3474 13.0244 38.5804 15.248 38.1077C16.2558 39.2027 17.4871 40.0791 18.8625 40.6806C20.2379 41.2821 21.727 41.5953 23.2338 41.6C25.5037 41.6002 27.7158 40.9005 29.5553 39.6005C31.3948 38.3006 32.768 36.4666 33.4794 34.3595C34.9594 34.061 36.3574 33.4577 37.5803 32.5897C38.8032 31.7218 39.8229 30.6092 40.5715 29.3259C41.7045 27.3936 42.1826 25.1602 41.9372 22.9459C41.6918 20.7316 40.7377 18.6501 39.2075 16.9998ZM23.2338 38.8773C21.3698 38.8937 19.5616 38.2561 18.1376 37.0802C18.1908 37.0282 18.3483 36.9762 18.4015 36.9262L26.8596 32.1506C27.0699 32.0299 27.2438 31.8572 27.3638 31.6497C27.4837 31.4422 27.5455 31.2074 27.5427 30.9691V19.3107L31.1153 21.3138C31.1685 21.3138 31.1685 21.3637 31.1685 21.4178V31.071C31.179 32.0948 30.9812 33.1104 30.5868 34.0588C30.1924 35.0073 29.6091 35.8697 28.8709 36.5959C28.1327 37.3222 27.2542 37.8978 26.2865 38.2895C25.3188 38.6811 24.2812 38.8809 23.2338 38.8773ZM6.10463 31.7387C5.15987 30.1475 4.84495 28.2984 5.15987 26.5013C5.21306 26.5512 5.31946 26.6053 5.42372 26.6552L13.8819 31.4309C14.0862 31.5574 14.3231 31.6245 14.5649 31.6245C14.8068 31.6245 15.0437 31.5574 15.248 31.4309L25.5978 25.5757V29.6317C25.5978 29.6858 25.5978 29.7357 25.5468 29.7357L16.9822 34.5634C13.1989 36.7203 8.31121 35.437 6.10463 31.7387ZM3.90231 13.6635C4.84801 12.0914 6.31057 10.8787 8.05161 10.2232V20.0824C8.05161 20.5462 8.31546 21.008 8.73465 21.2638L19.0866 27.119L15.5118 29.1221C15.4608 29.1221 15.4076 29.1741 15.4076 29.1221L6.84299 24.2923C5.92939 23.7892 5.12734 23.1134 4.48358 22.3043C3.83983 21.4952 3.36723 20.5689 3.09334 19.5795C2.81945 18.5901 2.74973 17.5572 2.88825 16.5412C3.02677 15.5252 3.37077 14.5462 3.90018 13.6614M33.3219 20.3382L22.9721 14.483L26.5447 12.48C26.5958 12.48 26.6511 12.428 26.6511 12.48L35.2136 17.3056C36.1203 17.8157 36.9148 18.4961 37.5513 19.3076C38.1879 20.1192 38.6538 21.0458 38.9224 22.0342C39.191 23.0225 39.2569 24.053 39.1163 25.0664C38.9757 26.0797 38.6314 27.0559 38.1032 27.9386C37.1702 29.5098 35.7013 30.71 33.9539 31.329V21.5197C33.9711 21.2848 33.921 21.0499 33.8094 20.8413C33.6978 20.6326 33.529 20.4585 33.3219 20.3382ZM36.8414 15.0987C36.7622 15.0354 36.674 14.9835 36.5797 14.9448L28.1215 10.1691C27.9171 10.0426 27.6803 9.9755 27.4384 9.9755C27.1966 9.9755 26.9597 10.0426 26.7554 10.1691L16.4034 16.0243V11.9662C16.4034 11.9142 16.4034 11.8622 16.4566 11.8622L25.0212 7.03664C25.9273 6.52386 26.9282 6.19138 27.9663 6.05837C29.0044 5.92536 30.0592 5.99444 31.0699 6.26164C32.0806 6.52883 33.0272 6.98886 33.8552 7.61521C34.6832 8.24157 35.3763 9.02188 35.8945 9.9112C36.8414 11.4525 37.1563 13.3016 36.8414 15.0987ZM14.4607 22.2893L10.8859 20.2862C10.8348 20.2862 10.8348 20.2342 10.8348 20.1822V10.531C10.834 9.50568 11.04 8.49022 11.441 7.54275C11.842 6.59528 12.4302 5.7344 13.172 5.00936C13.9137 4.28432 14.7944 3.70935 15.7636 3.31734C16.7329 2.92533 17.7717 2.72398 18.8206 2.7248C20.6847 2.70835 22.4929 3.346 23.9168 4.52192C23.8376 4.58527 23.7495 4.63711 23.6551 4.67584L15.1969 9.44944C14.9866 9.57005 14.8127 9.74285 14.6928 9.95032C14.5728 10.1578 14.5111 10.3926 14.5139 10.6309V22.2893H14.4607ZM16.4034 18.1813L21.0272 15.5605L25.651 18.1813V23.3667L21.0272 25.9875L16.4034 23.3667V18.1813Z" fill="#064154"/>
</svg>
