<svg width="39" height="39" viewBox="0 0 39 39" fill="none" xmlns="http://www.w3.org/2000/svg">
<path fill-rule="evenodd" clip-rule="evenodd" d="M2.70001 27.3027C3.18954 27.3027 3.65901 27.4972 4.00516 27.8433C4.35131 28.1895 4.54577 28.659 4.54577 29.1485V34.6932C4.54577 35.0328 4.82141 35.3084 5.16103 35.3084H34.6932C34.8564 35.3084 35.0129 35.2436 35.1283 35.1282C35.2437 35.0129 35.3085 34.8564 35.3085 34.6932V29.1485C35.3085 28.659 35.5029 28.1895 35.8491 27.8433C36.1952 27.4972 36.6647 27.3027 37.1542 27.3027C37.6438 27.3027 38.1132 27.4972 38.4594 27.8433C38.8055 28.1895 39 28.659 39 29.1485V34.6932C39 35.8354 38.5462 36.9309 37.7386 37.7386C36.9309 38.5462 35.8354 39 34.6932 39H5.16103C4.0188 39 2.92335 38.5462 2.11567 37.7386C1.308 36.9309 0.854248 35.8354 0.854248 34.6932V29.1485C0.854248 28.659 1.04871 28.1895 1.39486 27.8433C1.74101 27.4972 2.21048 27.3027 2.70001 27.3027ZM20.4242 0.854004C20.9138 0.854004 21.3833 1.04847 21.7294 1.39462C22.0755 1.74077 22.27 2.21025 22.27 2.69978V22.5997C22.27 23.0892 22.0755 23.5587 21.7294 23.9048C21.3833 24.251 20.9138 24.4455 20.4242 24.4455C19.9347 24.4455 19.4652 24.251 19.1191 23.9048C18.773 23.5587 18.5785 23.0892 18.5785 22.5997V2.69978C18.5785 2.21025 18.773 1.74077 19.1191 1.39462C19.4652 1.04847 19.9347 0.854004 20.4242 0.854004Z" fill="#064154"/>
<path fill-rule="evenodd" clip-rule="evenodd" d="M10.8755 16.5453C11.2174 16.1954 11.6841 15.9955 12.1733 15.9895C12.6624 15.9835 13.1339 16.1719 13.4842 16.5133L20.4243 23.2935L27.3644 16.5133C27.537 16.3404 27.7422 16.2034 27.9682 16.1104C28.1942 16.0174 28.4364 15.9701 28.6808 15.9715C28.9251 15.9728 29.1668 16.0226 29.3918 16.1181C29.6167 16.2135 29.8205 16.3527 29.9912 16.5275C30.162 16.7023 30.2963 16.9093 30.3864 17.1365C30.4766 17.3636 30.5207 17.6064 30.5162 17.8507C30.5118 18.0951 30.4589 18.3361 30.3606 18.5598C30.2622 18.7835 30.1205 18.9855 29.9435 19.154L21.7139 27.1942C21.3691 27.5309 20.9062 27.7194 20.4243 27.7194C19.9423 27.7194 19.4795 27.5309 19.1347 27.1942L10.9051 19.154C10.5555 18.8119 10.356 18.3449 10.3505 17.8558C10.3449 17.3666 10.5338 16.8953 10.8755 16.5453Z" fill="#064154"/>
</svg>
